<svg width="25" height="25" viewBox="0 0 25 25" fill="none" xmlns="http://www.w3.org/2000/svg">
<path d="M20.1371 22.7895C19.6605 22.7895 19.2741 22.4296 19.2741 21.9856C19.2741 18.8385 16.5256 16.2781 13.1472 16.2781H11.8528C8.47441 16.2781 5.72589 18.8385 5.72589 21.9856C5.72589 22.4296 5.33955 22.7895 4.86294 22.7895C4.38634 22.7895 4 22.4296 4 21.9856C4 17.952 7.52275 14.6704 11.8528 14.6704H13.1472C17.4772 14.6704 21 17.952 21 21.9856C21 22.4296 20.6137 22.7895 20.1371 22.7895ZM12.4137 13.0627C9.20187 13.0627 6.58883 10.6285 6.58883 7.6366C6.58883 4.64465 9.20187 2.21051 12.4137 2.21051C15.6255 2.21051 18.2386 4.64465 18.2386 7.6366C18.2386 10.6285 15.6255 13.0627 12.4137 13.0627ZM12.4137 3.81824C10.1535 3.81824 8.31472 5.53116 8.31472 7.6366C8.31472 9.74204 10.1535 11.455 12.4137 11.455C14.6739 11.455 16.5127 9.74204 16.5127 7.6366C16.5127 5.53116 14.6739 3.81824 12.4137 3.81824Z" fill="white"/>
</svg>
