<svg width="25" height="26" viewBox="0 0 25 26" fill="none" xmlns="http://www.w3.org/2000/svg">
<g clip-path="url(#clip0_32_50)">
<path d="M20.5354 13C20.0423 13 19.6426 13.3998 19.6426 13.8929V22.8213C19.6426 23.3144 19.2428 23.7142 18.7497 23.7142H2.67854C2.18541 23.7142 1.78567 23.3144 1.78567 22.8213V4.96442C1.78567 4.4713 2.18541 4.07156 2.67854 4.07156H13.3927C13.8858 4.07156 14.2855 3.67182 14.2855 3.1787C14.2855 2.68558 13.8858 2.28589 13.3927 2.28589H2.67854C1.19922 2.28589 0 3.48511 0 4.96442V22.8213C0 24.3006 1.19922 25.4998 2.67854 25.4998H18.7498C20.2291 25.4998 21.4283 24.3006 21.4283 22.8213V13.8928C21.4283 13.3998 21.0285 13 20.5354 13Z" fill="white"/>
<path d="M23.9991 1.50141C23.6816 1.18394 23.3048 0.932112 22.89 0.760322C22.4753 0.588532 22.0307 0.500141 21.5818 0.500197C21.1327 0.498892 20.6878 0.586771 20.2729 0.758738C19.858 0.930705 19.4814 1.18334 19.1649 1.50198L7.40427 13.2616C7.30671 13.3599 7.23309 13.4794 7.1891 13.6107L5.40343 18.9678C5.24758 19.4356 5.50052 19.9412 5.96838 20.097C6.05914 20.1272 6.1542 20.1427 6.24983 20.1428C6.34569 20.1426 6.44092 20.1272 6.53197 20.0972L11.889 18.3116C12.0206 18.2676 12.1402 18.1937 12.2381 18.0955L23.9987 6.33496C25.3335 5.0003 25.3337 2.83623 23.9991 1.50141ZM22.7362 5.07333L11.1292 16.6803L7.6614 17.8383L8.81584 14.375L20.4273 2.76801C21.0656 2.13091 22.0997 2.13196 22.7367 2.77031C23.0411 3.07525 23.2126 3.48808 23.2139 3.91889C23.2144 4.13332 23.1725 4.34573 23.0905 4.54388C23.0085 4.74202 22.8881 4.92196 22.7362 5.07333Z" fill="white"/>
</g>
<defs>
<clipPath id="clip0_32_50">
<rect width="25" height="25" fill="white" transform="translate(0 0.5)"/>
</clipPath>
</defs>
</svg>
