<svg width="160" height="160" viewBox="0 0 160 160" fill="none" xmlns="http://www.w3.org/2000/svg">
<path d="M80 0C35.8198 0 0 35.8198 0 80C0 124.185 35.8198 160 80 160C124.185 160 160 124.19 160 80C160 35.8198 124.185 0 80 0ZM80 145C44.1002 145 15.0002 115.9 15.0002 80C15.0002 44.1002 44.1002 15.0002 80 15.0002C115.9 15.0002 145 44.1002 145 80C145 115.9 115.9 145 80 145ZM80.005 35.0848C74.2752 35.0848 69.9398 38.075 69.9398 42.9049V87.2048C69.9398 92.0397 74.2746 95.0198 80.005 95.0198C85.595 95.0198 90.0703 91.915 90.0703 87.2048V42.9049C90.0697 38.1897 85.595 35.0848 80.005 35.0848ZM80.005 105C74.5001 105 70.0198 109.48 70.0198 114.99C70.0198 120.49 74.5001 124.97 80.005 124.97C85.51 124.97 89.9852 120.49 89.9852 114.99C89.9847 109.48 85.51 105 80.005 105Z" fill="#FF2828"/>
</svg>
