<svg width="180" height="168" viewBox="0 0 180 168" fill="none" xmlns="http://www.w3.org/2000/svg">
<path fill-rule="evenodd" clip-rule="evenodd" d="M135.132 28.4619V46.9746H144.105V28.4619H162.053V19.2056H144.105V0.692871H135.132V19.2056H117.184V28.4619H135.132ZM58.8548 9.94922C60.0448 9.94922 61.186 10.4368 62.0275 11.3048C62.8689 12.1727 63.3417 13.3499 63.3417 14.5774C63.3417 30.1281 68.3849 42.7815 76.8651 51.538C85.3543 60.2852 97.6214 65.4873 112.697 65.4873C113.887 65.4873 115.029 65.9749 115.87 66.8429C116.711 67.7108 117.184 68.888 117.184 70.1155C117.184 71.343 116.711 72.5202 115.87 73.3881C115.029 74.2561 113.887 74.7437 112.697 74.7437C97.6214 74.7437 85.3543 79.9457 76.8651 88.693C68.3849 97.4495 63.3417 110.103 63.3417 125.654C63.3417 126.881 62.8689 128.058 62.0275 128.926C61.186 129.794 60.0448 130.282 58.8548 130.282C57.6648 130.282 56.5235 129.794 55.6821 128.926C54.8406 128.058 54.3679 126.881 54.3679 125.654C54.3679 110.103 49.3247 97.4495 40.8445 88.693C32.3553 79.9457 20.0882 74.7437 5.01227 74.7437C3.82227 74.7437 2.68102 74.2561 1.83957 73.3881C0.998115 72.5202 0.525391 71.343 0.525391 70.1155C0.525391 68.888 0.998115 67.7108 1.83957 66.8429C2.68102 65.9749 3.82227 65.4873 5.01227 65.4873C20.0882 65.4873 32.3553 60.2852 40.8445 51.538C49.3336 42.7907 54.3679 30.1281 54.3679 14.5774C54.3679 13.3499 54.8406 12.1727 55.6821 11.3048C56.5235 10.4368 57.6648 9.94922 58.8548 9.94922ZM58.8548 39.7362C56.2094 46.6026 52.2407 52.8439 47.1889 58.0822C42.1105 63.2931 36.0597 67.3868 29.4029 70.1155C36.0597 72.8442 42.1105 76.9379 47.1889 82.1488C52.2407 87.3871 56.2094 93.6284 58.8548 100.495C61.5002 93.6284 65.4689 87.3871 70.5207 82.1488C75.5991 76.9379 81.6499 72.8442 88.3066 70.1155C81.6499 67.3868 75.5991 63.2931 70.5207 58.0822C65.4689 52.8439 61.5002 46.6026 58.8548 39.7362ZM144.105 88.6282C144.105 87.4007 143.633 86.2235 142.791 85.3556C141.95 84.4876 140.809 84 139.619 84C138.429 84 137.287 84.4876 136.446 85.3556C135.604 86.2235 135.132 87.4007 135.132 88.6282C135.132 99.1804 132.036 107.159 126.858 112.491C121.68 117.823 113.954 121.025 103.724 121.025C102.534 121.025 101.392 121.513 100.551 122.381C99.7094 123.249 99.2367 124.426 99.2367 125.654C99.2367 126.881 99.7094 128.058 100.551 128.926C101.392 129.794 102.534 130.282 103.724 130.282C113.954 130.282 121.689 133.475 126.858 138.816C132.027 144.157 135.132 152.127 135.132 162.679C135.132 163.906 135.604 165.084 136.446 165.952C137.287 166.82 138.429 167.307 139.619 167.307C140.809 167.307 141.95 166.82 142.791 165.952C143.633 165.084 144.105 163.906 144.105 162.679C144.105 152.127 147.201 144.148 152.379 138.816C157.557 133.484 165.284 130.282 175.514 130.282C176.704 130.282 177.845 129.794 178.686 128.926C179.528 128.058 180 126.881 180 125.654C180 124.426 179.528 123.249 178.686 122.381C177.845 121.513 176.704 121.025 175.514 121.025C165.284 121.025 157.548 117.832 152.379 112.491C147.21 107.15 144.105 99.1804 144.105 88.6282ZM133.211 119.035C135.805 116.36 137.94 113.278 139.619 109.853C141.297 113.278 143.432 116.36 146.035 119.035C148.628 121.72 151.616 123.923 154.937 125.654C151.616 127.385 148.628 129.588 146.035 132.272C143.432 134.947 141.297 138.029 139.619 141.454C137.969 138.06 135.803 134.96 133.202 132.272C130.597 129.59 127.591 127.355 124.3 125.654C127.621 123.923 130.618 121.72 133.211 119.035Z" fill="url(#paint0_linear_26_36)"/>
<defs>
<linearGradient id="paint0_linear_26_36" x1="18.4729" y1="84" x2="162.053" y2="84" gradientUnits="userSpaceOnUse">
<stop stop-color="#D918CF"/>
<stop offset="1" stop-color="#00A3FF"/>
</linearGradient>
</defs>
</svg>
