<svg width="26" height="26" viewBox="0 0 26 26" fill="none" xmlns="http://www.w3.org/2000/svg">
<path fill-rule="evenodd" clip-rule="evenodd" d="M19.333 5.75V8.33333H20.583V5.75H23.083V4.45833H20.583V1.875H19.333V4.45833H16.833V5.75H19.333ZM8.70801 3.16667C8.87377 3.16667 9.03274 3.23471 9.14995 3.35583C9.26716 3.47694 9.33301 3.64121 9.33301 3.8125C9.33301 5.9825 10.0355 7.74821 11.2168 8.97012C12.3993 10.1908 14.108 10.9167 16.208 10.9167C16.3738 10.9167 16.5327 10.9847 16.65 11.1058C16.7672 11.2269 16.833 11.3912 16.833 11.5625C16.833 11.7338 16.7672 11.8981 16.65 12.0192C16.5327 12.1403 16.3738 12.2083 16.208 12.2083C14.108 12.2083 12.3993 12.9342 11.2168 14.1549C10.0355 15.3768 9.33301 17.1425 9.33301 19.3125C9.33301 19.4838 9.26716 19.6481 9.14995 19.7692C9.03274 19.8903 8.87377 19.9583 8.70801 19.9583C8.54225 19.9583 8.38328 19.8903 8.26607 19.7692C8.14886 19.6481 8.08301 19.4838 8.08301 19.3125C8.08301 17.1425 7.38051 15.3768 6.19926 14.1549C5.01676 12.9342 3.30801 12.2083 1.20801 12.2083C1.04225 12.2083 0.883276 12.1403 0.766066 12.0192C0.648856 11.8981 0.583008 11.7338 0.583008 11.5625C0.583008 11.3912 0.648856 11.2269 0.766066 11.1058C0.883276 10.9847 1.04225 10.9167 1.20801 10.9167C3.30801 10.9167 5.01676 10.1908 6.19926 8.97012C7.38176 7.7495 8.08301 5.9825 8.08301 3.8125C8.08301 3.64121 8.14886 3.47694 8.26607 3.35583C8.38328 3.23471 8.54225 3.16667 8.70801 3.16667ZM8.70801 7.32325C8.33951 8.28141 7.78669 9.15235 7.08301 9.88333C6.3756 10.6105 5.53276 11.1817 4.60551 11.5625C5.53276 11.9433 6.3756 12.5145 7.08301 13.2417C7.78669 13.9727 8.33951 14.8436 8.70801 15.8017C9.0765 14.8436 9.62932 13.9727 10.333 13.2417C11.0404 12.5145 11.8833 11.9433 12.8105 11.5625C11.8833 11.1817 11.0404 10.6105 10.333 9.88333C9.62932 9.15235 9.0765 8.28141 8.70801 7.32325ZM20.583 14.1458C20.583 13.9745 20.5172 13.8103 20.4 13.6892C20.2827 13.568 20.1238 13.5 19.958 13.5C19.7922 13.5 19.6333 13.568 19.5161 13.6892C19.3989 13.8103 19.333 13.9745 19.333 14.1458C19.333 15.6183 18.9018 16.7317 18.1805 17.4757C17.4593 18.2197 16.383 18.6667 14.958 18.6667C14.7922 18.6667 14.6333 18.7347 14.5161 18.8558C14.3989 18.9769 14.333 19.1412 14.333 19.3125C14.333 19.4838 14.3989 19.6481 14.5161 19.7692C14.6333 19.8903 14.7922 19.9583 14.958 19.9583C16.383 19.9583 17.4605 20.404 18.1805 21.1493C18.9005 21.8945 19.333 23.0067 19.333 24.4792C19.333 24.6505 19.3989 24.8147 19.5161 24.9358C19.6333 25.057 19.7922 25.125 19.958 25.125C20.1238 25.125 20.2827 25.057 20.4 24.9358C20.5172 24.8147 20.583 24.6505 20.583 24.4792C20.583 23.0067 21.0143 21.8933 21.7355 21.1493C22.4568 20.4053 23.533 19.9583 24.958 19.9583C25.1238 19.9583 25.2827 19.8903 25.4 19.7692C25.5172 19.6481 25.583 19.4838 25.583 19.3125C25.583 19.1412 25.5172 18.9769 25.4 18.8558C25.2827 18.7347 25.1238 18.6667 24.958 18.6667C23.533 18.6667 22.4555 18.221 21.7355 17.4757C21.0155 16.7305 20.583 15.6183 20.583 14.1458ZM19.0655 18.389C19.4268 18.0157 19.7243 17.5855 19.958 17.1076C20.1918 17.5855 20.4893 18.0157 20.8518 18.389C21.213 18.7635 21.6293 19.071 22.0918 19.3125C21.6293 19.554 21.213 19.8615 20.8518 20.236C20.4893 20.6093 20.1918 21.0395 19.958 21.5174C19.7282 21.0437 19.4265 20.6111 19.0643 20.236C18.7013 19.8617 18.2827 19.5499 17.8243 19.3125C18.2868 19.071 18.7043 18.7635 19.0655 18.389Z" fill="white"/>
</svg>
