<svg width="26" height="25" viewBox="0 0 26 25" fill="none" xmlns="http://www.w3.org/2000/svg">
<path fill-rule="evenodd" clip-rule="evenodd" d="M14.7346 0.608242C14.1924 0.21265 13.5428 0 12.8766 0C12.2103 0 11.5607 0.21265 11.0185 0.608242L2.68982 6.68658C1.9743 7.20856 1.39107 7.89754 0.988621 8.69624C0.586172 9.49493 0.376137 10.3803 0.375977 11.2786V20.5446C0.375977 21.1298 0.488796 21.7093 0.707993 22.2499C0.927189 22.7905 1.24847 23.2817 1.65348 23.6955C2.05849 24.1092 2.5393 24.4374 3.06844 24.6612C3.59759 24.885 4.16471 25.0002 4.7374 25H8.0605C8.90854 25 9.72184 24.6558 10.3215 24.043C10.9211 23.4303 11.258 22.5993 11.258 21.7327V19.9506C11.258 19.7142 11.3499 19.4876 11.5134 19.3205C11.677 19.1534 11.8988 19.0595 12.1301 19.0595H13.6254C13.8566 19.0595 14.0785 19.1534 14.242 19.3205C14.4055 19.4876 14.4974 19.7142 14.4974 19.9506V21.7327C14.4974 22.1618 14.5801 22.5866 14.7408 22.9831C14.9015 23.3795 15.137 23.7396 15.4339 24.043C15.7309 24.3464 16.0834 24.5871 16.4713 24.7513C16.8592 24.9155 17.275 25 17.6949 25H21.0157C22.1721 25 23.2812 24.5306 24.0989 23.695C24.9166 22.8595 25.376 21.7263 25.376 20.5446V11.2786C25.3758 10.3803 25.1658 9.49493 24.7633 8.69624C24.3609 7.89754 23.7777 7.20856 23.0621 6.68658L14.7346 0.608242ZM12.0312 2.05773C12.2779 1.87757 12.5734 1.78071 12.8766 1.78071C13.1797 1.78071 13.4753 1.87757 13.7219 2.05773L22.0494 8.13844C22.5385 8.49573 22.9372 8.96714 23.2122 9.5135C23.4873 10.0599 23.6307 10.6654 23.6307 11.2798V20.5446C23.6307 21.2534 23.3552 21.9332 22.8649 22.4345C22.3745 22.9357 21.7094 23.2175 21.0157 23.2178H17.6949C16.8926 23.2178 16.2415 22.5525 16.2415 21.7327V19.9506C16.2415 19.2416 15.9659 18.5616 15.4753 18.0603C14.9846 17.559 14.3192 17.2773 13.6254 17.2773H12.1301C11.4362 17.2773 10.7708 17.559 10.2802 18.0603C9.78955 18.5616 9.51392 19.2416 9.51392 19.9506V21.7327C9.51392 22.5525 8.86279 23.2178 8.0605 23.2178H4.7374C4.04355 23.2178 3.37812 22.9362 2.8875 22.4349C2.39687 21.9335 2.12124 21.2536 2.12124 20.5446V11.2786C2.12123 10.6642 2.2647 10.0587 2.53973 9.51231C2.81476 8.96595 3.21341 8.49455 3.70257 8.13725L12.0312 2.05773Z" fill="white"/>
</svg>
