<svg width="184" height="168" viewBox="0 0 184 168" fill="none" xmlns="http://www.w3.org/2000/svg">
<path d="M165.603 47.6781H18.3707C13.6538 47.6831 9.13155 49.5999 5.79621 53.008C2.46088 56.4161 0.58495 61.0371 0.580078 65.8568V149.479C0.580078 159.502 8.56132 167.658 18.3707 167.658H165.603C175.413 167.658 183.394 159.502 183.394 149.479V65.8568C183.394 55.8335 175.413 47.6781 165.603 47.6781ZM11.6225 149.479V65.8568C11.6225 65.7377 11.6839 65.6437 11.69 65.5309L60.0498 107.674L11.6716 149.717C11.6655 149.636 11.6225 149.567 11.6225 149.479ZM96.3673 116.864C95.1491 117.936 93.5948 118.526 91.9871 118.526C90.3793 118.526 88.825 117.936 87.6069 116.864L21.162 58.9615H162.806L96.3673 116.864ZM68.5525 115.09L80.4416 125.452C83.6559 128.27 87.7515 129.82 91.9871 129.82C96.2226 129.82 100.318 128.27 103.533 125.452L115.422 115.09L162.916 156.374H21.0577L68.5525 115.09ZM123.93 107.674L172.29 65.5309C172.296 65.6437 172.358 65.744 172.358 65.8568V149.479C172.358 149.567 172.315 149.636 172.309 149.724L123.93 107.674Z" fill="url(#paint0_linear_19_265)"/>
<path d="M91.9879 25.2246C93.4522 25.2246 94.8566 24.6302 95.892 23.5721C96.9274 22.5141 97.5091 21.0791 97.5091 19.5829V5.86733C97.5091 4.37106 96.9274 2.93608 95.892 1.87806C94.8566 0.820037 93.4522 0.225647 91.9879 0.225647C90.5236 0.225647 89.1192 0.820037 88.0838 1.87806C87.0484 2.93608 86.4667 4.37106 86.4667 5.86733V19.5829C86.4667 21.0791 87.0484 22.5141 88.0838 23.5721C89.1192 24.6302 90.5236 25.2246 91.9879 25.2246ZM55.9282 35.2354C56.4116 35.7917 56.998 36.2448 57.6535 36.5686C58.3091 36.8924 59.0208 37.0806 59.7478 37.1222C60.4748 37.1638 61.2026 37.058 61.8894 36.8111C62.5762 36.5641 63.2085 36.1807 63.7497 35.6831C64.291 35.1854 64.7305 34.5833 65.0431 33.9113C65.3557 33.2394 65.5351 32.5109 65.571 31.7678C65.607 31.0247 65.4987 30.2817 65.2525 29.5815C65.0063 28.8813 64.627 28.2379 64.1364 27.6881L55.5969 17.9907C55.1134 17.4344 54.527 16.9813 53.8715 16.6574C53.216 16.3336 52.5042 16.1455 51.7773 16.1039C51.0503 16.0623 50.3224 16.168 49.6356 16.415C48.9488 16.662 48.3166 17.0454 47.7753 17.543C47.2341 18.0407 46.7945 18.6428 46.4819 19.3148C46.1694 19.9867 45.9899 20.7152 45.954 21.4583C45.9181 22.2014 46.0263 22.9444 46.2725 23.6446C46.5188 24.3447 46.8981 24.9882 47.3887 25.538L55.9282 35.2354ZM123.944 37.1034C124.718 37.1046 125.483 36.9388 126.191 36.6169C126.898 36.295 127.531 35.8242 128.048 35.2354L136.587 25.538C137.072 24.9873 137.446 24.3443 137.688 23.6459C137.93 22.9474 138.035 22.2072 137.996 21.4673C137.958 20.7275 137.778 20.0026 137.466 19.334C137.153 18.6654 136.715 18.0662 136.176 17.5707C135.637 17.0751 135.008 16.6929 134.324 16.4458C133.641 16.1987 132.916 16.0916 132.192 16.1306C131.468 16.1696 130.759 16.3539 130.105 16.6731C129.45 16.9922 128.864 17.44 128.379 17.9907L119.839 27.6881C119.123 28.4978 118.652 29.5027 118.484 30.5808C118.315 31.6589 118.457 32.7637 118.892 33.7609C119.327 34.7582 120.035 35.6049 120.932 36.1983C121.829 36.7917 122.875 37.1061 123.944 37.1034Z" fill="url(#paint1_linear_19_265)"/>
<defs>
<linearGradient id="paint0_linear_19_265" x1="18.8615" y1="107.668" x2="165.113" y2="107.668" gradientUnits="userSpaceOnUse">
<stop stop-color="#D918CF"/>
<stop offset="1" stop-color="#00A3FF"/>
</linearGradient>
<linearGradient id="paint1_linear_19_265" x1="55.1529" y1="18.6783" x2="128.798" y2="18.6783" gradientUnits="userSpaceOnUse">
<stop stop-color="#D918CF"/>
<stop offset="1" stop-color="#00A3FF"/>
</linearGradient>
</defs>
</svg>
