<svg width="27" height="25" viewBox="0 0 27 25" fill="none" xmlns="http://www.w3.org/2000/svg">
<path d="M23.6134 7.37427H3.38647C2.73846 7.37495 2.11719 7.63829 1.65898 8.1065C1.20077 8.5747 0.943052 9.20953 0.942383 9.87168V21.3598C0.942383 22.7368 2.03885 23.8572 3.38647 23.8572H23.6134C24.961 23.8572 26.0575 22.7368 26.0575 21.3598V9.87168C26.0575 8.49466 24.961 7.37427 23.6134 7.37427ZM2.4594 21.3598V9.87168C2.4594 9.85531 2.46783 9.8424 2.46867 9.82689L9.11238 15.6166L2.46615 21.3925C2.4653 21.3813 2.4594 21.3718 2.4594 21.3598ZM14.1017 16.8791C13.9343 17.0264 13.7208 17.1074 13.4999 17.1074C13.2791 17.1074 13.0655 17.0264 12.8982 16.8791L3.76994 8.92438H23.2291L14.1017 16.8791ZM10.2805 16.6353L11.9138 18.0589C12.3554 18.4461 12.9181 18.6589 13.4999 18.6589C14.0818 18.6589 14.6445 18.4461 15.0861 18.0589L16.7194 16.6353L23.2443 22.307H3.75561L10.2805 16.6353ZM17.8883 15.6166L24.532 9.82689C24.5329 9.8424 24.5413 9.85617 24.5413 9.87168V21.3598C24.5413 21.3718 24.5354 21.3813 24.5346 21.3933L17.8883 15.6166Z" fill="white"/>
<path d="M13.4999 4.28971C13.7011 4.28971 13.894 4.20806 14.0362 4.06271C14.1785 3.91735 14.2584 3.72021 14.2584 3.51466V1.6304C14.2584 1.42485 14.1785 1.22771 14.0362 1.08236C13.894 0.937004 13.7011 0.855347 13.4999 0.855347C13.2987 0.855347 13.1058 0.937004 12.9636 1.08236C12.8213 1.22771 12.7414 1.42485 12.7414 1.6304V3.51466C12.7414 3.72021 12.8213 3.91735 12.9636 4.06271C13.1058 4.20806 13.2987 4.28971 13.4999 4.28971ZM8.54599 5.66501C8.61241 5.74144 8.69296 5.80369 8.78302 5.84817C8.87308 5.89266 8.97086 5.9185 9.07073 5.92422C9.1706 5.92993 9.27059 5.91541 9.36495 5.88148C9.45931 5.84754 9.54616 5.79488 9.62052 5.72651C9.69487 5.65814 9.75526 5.57542 9.7982 5.48311C9.84115 5.39079 9.8658 5.29071 9.87073 5.18863C9.87567 5.08654 9.8608 4.98446 9.82697 4.88828C9.79315 4.79209 9.74104 4.70368 9.67364 4.62816L8.50048 3.29592C8.43406 3.21949 8.3535 3.15724 8.26344 3.11276C8.17338 3.06827 8.07561 3.04243 7.97573 3.03671C7.87586 3.031 7.77587 3.04552 7.68151 3.07945C7.58716 3.11338 7.5003 3.16605 7.42595 3.23442C7.35159 3.30279 7.2912 3.38551 7.24826 3.47782C7.20532 3.57014 7.18067 3.67022 7.17573 3.7723C7.17079 3.87439 7.18566 3.97646 7.21949 4.07265C7.25332 4.16884 7.30543 4.25725 7.37282 4.33277L8.54599 5.66501ZM17.89 5.92164C17.9963 5.9218 18.1015 5.89902 18.1987 5.8548C18.2959 5.81058 18.3828 5.74591 18.4538 5.66501L19.627 4.33277C19.6936 4.25711 19.745 4.16879 19.7782 4.07284C19.8114 3.97688 19.8258 3.87518 19.8206 3.77355C19.8153 3.67191 19.7906 3.57232 19.7477 3.48047C19.7047 3.38862 19.6446 3.3063 19.5705 3.23822C19.4965 3.17014 19.41 3.11763 19.3161 3.08368C19.2222 3.04973 19.1227 3.03502 19.0232 3.04038C18.9238 3.04574 18.8263 3.07106 18.7364 3.11491C18.6465 3.15875 18.566 3.22026 18.4993 3.29592L17.3262 4.62816C17.2277 4.73939 17.163 4.87745 17.1399 5.02556C17.1168 5.17367 17.1363 5.32544 17.196 5.46245C17.2557 5.59945 17.3531 5.71578 17.4763 5.7973C17.5995 5.87881 17.7432 5.92201 17.89 5.92164Z" fill="white"/>
</svg>
