<svg width="30" height="30" viewBox="0 0 30 30" fill="none" xmlns="http://www.w3.org/2000/svg">
<path d="M18.75 18.75V24.5156C18.7285 24.7444 18.6185 24.9558 18.4433 25.1047C18.2682 25.2536 18.0418 25.3281 17.8125 25.3125H6.5625C6.33317 25.3281 6.1068 25.2536 5.93166 25.1047C5.75652 24.9558 5.64647 24.7444 5.625 24.5156V5.48433C5.64647 5.25547 5.75652 5.04406 5.93166 4.89519C6.1068 4.74632 6.33317 4.67178 6.5625 4.68745H17.8125C18.0418 4.67178 18.2682 4.74632 18.4433 4.89519C18.6185 5.04406 18.7285 5.25547 18.75 5.48433V11.25C18.75 11.4986 18.8488 11.7371 19.0246 11.9129C19.2004 12.0887 19.4389 12.1875 19.6875 12.1875C19.9361 12.1875 20.1746 12.0887 20.3504 11.9129C20.5262 11.7371 20.625 11.4986 20.625 11.25V5.48433C20.6054 4.75739 20.2983 4.0679 19.771 3.56704C19.2438 3.06618 18.5395 2.79482 17.8125 2.81245H6.5625C5.83551 2.79482 5.13119 3.06618 4.60396 3.56704C4.07674 4.0679 3.76964 4.75739 3.75 5.48433V24.5156C3.76964 25.2425 4.07674 25.932 4.60396 26.4329C5.13119 26.9337 5.83551 27.2051 6.5625 27.1875H17.8125C18.5395 27.2051 19.2438 26.9337 19.771 26.4329C20.2983 25.932 20.6054 25.2425 20.625 24.5156V18.75C20.625 18.5013 20.5262 18.2629 20.3504 18.087C20.1746 17.9112 19.9361 17.8125 19.6875 17.8125C19.4389 17.8125 19.2004 17.9112 19.0246 18.087C18.8488 18.2629 18.75 18.5013 18.75 18.75Z" fill="#FF2828"/>
<path d="M27.7313 14.2312L23.7563 11.4187C23.5534 11.2764 23.3025 11.2202 23.0583 11.2623C22.8141 11.3045 22.5965 11.4416 22.4531 11.6437C22.3812 11.7445 22.3299 11.8585 22.3023 11.9792C22.2746 12.0999 22.2712 12.2248 22.2921 12.3469C22.313 12.4689 22.3579 12.5856 22.4242 12.6902C22.4904 12.7948 22.5767 12.8852 22.6781 12.9562L24.2438 14.0625H12.1875C11.9389 14.0625 11.7004 14.1613 11.5246 14.3371C11.3488 14.5129 11.25 14.7513 11.25 15C11.25 15.2486 11.3488 15.4871 11.5246 15.6629C11.7004 15.8387 11.9389 15.9375 12.1875 15.9375H24.5062L23.0719 17.0812C22.9715 17.1567 22.8872 17.2515 22.8242 17.3601C22.7611 17.4687 22.7206 17.5889 22.7048 17.7134C22.6891 17.838 22.6986 17.9645 22.7327 18.0854C22.7668 18.2062 22.8248 18.319 22.9034 18.417C22.9819 18.515 23.0793 18.5962 23.1898 18.6559C23.3003 18.7155 23.4217 18.7523 23.5467 18.7641C23.6717 18.7759 23.7979 18.7625 23.9176 18.7247C24.0373 18.6868 24.1483 18.6253 24.2438 18.5437L27.7688 15.7312C27.8831 15.641 27.9748 15.5254 28.0366 15.3936C28.0985 15.2618 28.1288 15.1174 28.1252 14.9719C28.1216 14.8263 28.0841 14.6836 28.0157 14.555C27.9473 14.4265 27.8499 14.3156 27.7313 14.2312Z" fill="#FF2828"/>
</svg>
