<svg width="22" height="24" viewBox="0 0 22 24" fill="none" xmlns="http://www.w3.org/2000/svg">
<path d="M17.116 18.768L18.544 20.252C16.864 22.044 14.232 23.108 11.32 23.108C4.908 23.108 0.036 18.292 0.036 11.992C0.036 5.69199 4.936 0.763989 11.236 0.763989C17.172 0.763989 21.456 4.85199 21.456 10.536C21.456 14.792 18.488 18.376 14.876 18.376C13.532 18.376 12.608 17.816 12.16 16.696C11.264 17.732 10.144 18.236 8.744 18.236C6.28 18.236 4.628 16.388 4.628 13.7C4.628 9.58399 7.68 5.88799 11.068 5.88799C12.664 5.88799 13.616 6.44799 14.316 7.73599L14.708 6.27999H16.808L14.764 13.7C14.428 14.736 14.372 15.128 14.372 15.576C14.372 16.052 14.708 16.36 15.268 16.36C17.284 16.36 19.384 13.336 19.384 10.396C19.384 5.99999 15.94 2.77999 11.236 2.77999C6.168 2.77999 2.136 6.83999 2.136 11.992C2.136 17.144 6.14 21.092 11.348 21.092C13.588 21.092 15.52 20.336 17.116 18.768ZM9.332 16.164C11.264 16.164 13.392 13.028 13.392 10.228C13.392 8.82799 12.58 7.95999 11.236 7.95999C9.136 7.95999 7.092 10.732 7.092 13.56C7.092 15.128 7.96 16.164 9.332 16.164Z" fill="white"/>
</svg>
