<svg width="371" height="89" viewBox="0 0 371 89" fill="none" xmlns="http://www.w3.org/2000/svg">
<path fill-rule="evenodd" clip-rule="evenodd" d="M2.064 0V35.472H8.64V6.288H20.64V35.472H27.216V0H2.064ZM46.2248 8.256C38.2568 8.256 31.9688 14.448 31.9688 22.224C31.9688 29.856 38.3047 36.096 46.1287 36.096C53.9048 36.096 60.2408 29.856 60.2408 22.224C60.2408 14.544 53.9528 8.256 46.2248 8.256ZM53.8088 22.224C53.8088 26.64 50.3527 30.24 46.0807 30.24C41.8568 30.24 38.4007 26.64 38.4007 22.176C38.4007 17.76 41.8568 14.112 45.9848 14.112C50.3527 14.112 53.8088 17.664 53.8088 22.224ZM78.2182 25.92V35.472H84.6022V8.88H78.2182V20.304C76.8262 20.592 75.5303 20.736 74.0423 20.736C70.5863 20.736 69.6263 19.824 69.6263 16.608V8.88H63.2422V16.608C63.2422 22.848 66.6022 26.544 72.3623 26.544C74.3303 26.544 75.7702 26.4 78.2182 25.92ZM94.2589 14.688V35.472H100.643V14.688H106.835V8.88H88.0669V14.688H94.2589ZM122.567 8.256C114.695 8.256 109.031 14.16 109.031 22.272C109.031 30.288 114.647 36.096 122.423 36.096C126.215 36.096 128.711 34.944 131.255 32.016V35.472H137.111V8.88H131.255V12.432C129.047 9.504 126.407 8.256 122.567 8.256ZM123.335 30.24C118.679 30.24 115.463 27.072 115.463 22.416C115.463 17.616 118.679 14.112 123.143 14.112C127.799 14.112 131.063 17.472 131.063 22.272C131.063 27.024 127.943 30.24 123.335 30.24ZM27.408 70.736H20.208C18.624 73.184 16.8 74.24 14.16 74.24C9.744 74.24 6.432 70.784 6.432 66.128C6.432 61.424 9.552 58.112 14.016 58.112C16.944 58.112 18.912 59.312 20.208 61.76H27.408C25.296 55.76 20.352 52.256 14.016 52.256C6.144 52.256 0 58.352 0 66.176C0 73.904 6.336 80.096 14.208 80.096C20.4 80.096 25.2 76.736 27.408 70.736ZM51.0851 52.88H44.7011V79.472H51.0851V68.96H62.7971V79.472H69.1811V52.88H62.7971V63.152H51.0851V52.88ZM100.197 71.6H93.237C91.605 73.52 90.021 74.24 87.381 74.24C83.589 74.24 80.805 72.224 80.037 69.008H100.629C100.821 68.144 100.869 67.568 100.869 66.56C100.869 58.304 95.061 52.256 87.141 52.256C79.317 52.256 73.125 58.448 73.125 66.272C73.125 74.048 79.413 80.096 87.525 80.096C93.381 80.096 98.613 76.592 100.197 71.6ZM94.581 63.392H79.845C80.853 59.936 83.445 58.112 87.237 58.112C91.173 58.112 93.765 59.984 94.581 63.392ZM114.107 43.664H109.259C109.931 47.792 112.619 49.904 117.179 49.904C121.739 49.904 124.427 47.792 125.099 43.664H120.251C120.251 46.064 119.339 47.072 117.179 47.072C115.019 47.072 114.107 46.064 114.107 43.664ZM111.131 52.88H104.795V79.472H111.275L123.179 61.904V79.472H129.515V52.88H123.035L111.131 70.448V52.88ZM134.701 52.88V88.352H141.085V76.976C143.581 79.136 146.029 80.096 149.245 80.096C156.925 80.096 162.541 74.144 162.541 66.08C162.541 58.064 156.973 52.256 149.293 52.256C145.693 52.256 142.621 53.552 140.557 56V52.88H134.701ZM156.109 66.224C156.109 70.736 152.797 74.24 148.525 74.24C144.109 74.24 140.701 70.784 140.701 66.272C140.701 61.616 144.013 58.112 148.333 58.112C152.797 58.112 156.109 61.52 156.109 66.224ZM179.49 52.256C171.522 52.256 165.234 58.448 165.234 66.224C165.234 73.856 171.57 80.096 179.394 80.096C187.17 80.096 193.506 73.856 193.506 66.224C193.506 58.544 187.218 52.256 179.49 52.256ZM187.074 66.224C187.074 70.64 183.618 74.24 179.346 74.24C175.122 74.24 171.666 70.64 171.666 66.176C171.666 61.76 175.122 58.112 179.25 58.112C183.618 58.112 187.074 61.664 187.074 66.224ZM223.58 70.736H216.38C214.796 73.184 212.972 74.24 210.332 74.24C205.916 74.24 202.604 70.784 202.604 66.128C202.604 61.424 205.724 58.112 210.188 58.112C213.116 58.112 215.084 59.312 216.38 61.76H223.58C221.468 55.76 216.524 52.256 210.188 52.256C202.316 52.256 196.172 58.352 196.172 66.176C196.172 73.904 202.508 80.096 210.38 80.096C216.572 80.096 221.372 76.736 223.58 70.736ZM253.244 71.6H246.284C244.652 73.52 243.068 74.24 240.428 74.24C236.636 74.24 233.852 72.224 233.084 69.008H253.676C253.868 68.144 253.916 67.568 253.916 66.56C253.916 58.304 248.108 52.256 240.188 52.256C232.364 52.256 226.172 58.448 226.172 66.272C226.172 74.048 232.46 80.096 240.572 80.096C246.428 80.096 251.66 76.592 253.244 71.6ZM247.628 63.392H232.892C233.9 59.936 236.492 58.112 240.284 58.112C244.22 58.112 246.812 59.984 247.628 63.392ZM262.306 58.688V79.472H268.69V58.688H274.882V52.88H256.114V58.688H262.306ZM289.606 73.664H284.71V67.808H289.606C291.478 67.808 292.822 69.008 292.822 70.736C292.822 72.464 291.478 73.664 289.606 73.664ZM278.326 52.88V79.472H290.038C295.27 79.472 299.254 75.728 299.254 70.736C299.254 65.744 295.27 62 290.038 62H284.71V52.88H278.326ZM334.329 66.224C334.329 70.736 330.777 74.432 326.409 74.432C322.089 74.432 318.537 70.736 318.537 66.176C318.537 61.664 322.089 57.92 326.313 57.92C330.777 57.92 334.329 61.568 334.329 66.224ZM302.889 52.88V79.472H309.273V68.96H312.393C313.737 75.536 319.641 80.288 326.457 80.288C334.329 80.288 340.761 73.952 340.761 66.224C340.761 58.448 334.377 52.064 326.553 52.064C319.689 52.064 313.833 56.672 312.441 63.152H309.273V52.88H302.889ZM354.718 27.5301C355.153 27.8734 355.457 28.3525 355.581 28.8891L356.94 34.7984C357.248 36.1377 357.932 37.3636 358.914 38.3348C359.896 39.306 361.135 39.983 362.489 40.2876L368.464 41.6319C369.007 41.7542 369.491 42.0551 369.838 42.4854C370.185 42.9156 370.374 43.4496 370.374 44C370.374 44.5504 370.185 45.0844 369.838 45.5146C369.491 45.9449 369.007 46.2458 368.464 46.3681L362.489 47.7124C361.135 48.017 359.896 48.694 358.914 49.6652C357.932 50.6364 357.248 51.8623 356.94 53.2016L355.581 59.1109C355.457 59.6475 355.153 60.1266 354.718 60.4699C354.283 60.8131 353.743 61 353.187 61C352.631 61 352.091 60.8131 351.656 60.4699C351.221 60.1266 350.917 59.6475 350.793 59.1109L349.434 53.2016C349.126 51.8623 348.442 50.6364 347.46 49.6652C346.478 48.694 345.239 48.017 343.885 47.7124L337.91 46.3681C337.367 46.2458 336.883 45.9449 336.536 45.5146C336.189 45.0844 336 44.5504 336 44C336 43.4496 336.189 42.9156 336.536 42.4854C336.883 42.0551 337.367 41.7542 337.91 41.6319L343.885 40.2876C345.239 39.983 346.478 39.306 347.46 38.3348C348.442 37.3636 349.126 36.1377 349.434 34.7984L350.793 28.8891C350.917 28.3525 351.221 27.8734 351.656 27.5301C352.091 27.1869 352.631 27 353.187 27C353.743 27 354.283 27.1869 354.718 27.5301ZM353.187 38.7028C352.01 40.9823 350.136 42.8361 347.832 44C350.136 45.1639 352.01 47.0177 353.187 49.2972C354.364 47.0177 356.238 45.1639 358.542 44C356.238 42.8361 354.364 40.9823 353.187 38.7028Z" fill="url(#paint0_linear_11_36)"/>
<defs>
<linearGradient id="paint0_linear_11_36" x1="37.0373" y1="44.176" x2="333.337" y2="44.176" gradientUnits="userSpaceOnUse">
<stop stop-color="#D918CF"/>
<stop offset="1" stop-color="#00A3FF"/>
</linearGradient>
</defs>
</svg>
