<svg width="144" height="52" viewBox="0 0 144 52" fill="none" xmlns="http://www.w3.org/2000/svg">
<g clip-path="url(#clip0_68_155)">
<path fill-rule="evenodd" clip-rule="evenodd" d="M41.1856 1.33614C41.0991 0.956609 40.8863 0.617707 40.582 0.374956C40.2777 0.132205 39.9 0 39.5107 0C39.1215 0 38.7437 0.132205 38.4394 0.374956C38.1351 0.617707 37.9223 0.956609 37.8358 1.33614L36.885 5.51569C36.6696 6.46294 36.1908 7.33001 35.5039 8.01692C34.8169 8.70384 33.9499 9.18261 33.0026 9.39804L28.8222 10.3489C28.4427 10.4354 28.1038 10.6482 27.861 10.9525C27.6183 11.2568 27.4861 11.6345 27.4861 12.0238C27.4861 12.4131 27.6183 12.7908 27.861 13.0951C28.1038 13.3994 28.4427 13.6122 28.8222 13.6987L33.0026 14.6495C33.9499 14.865 34.8169 15.3437 35.5039 16.0307C36.1908 16.7176 36.6696 17.5846 36.885 18.5319L37.8358 22.7114C37.9223 23.091 38.1351 23.4299 38.4394 23.6726C38.7437 23.9154 39.1215 24.0476 39.5107 24.0476C39.9 24.0476 40.2777 23.9154 40.582 23.6726C40.8863 23.4299 41.0991 23.091 41.1856 22.7114L42.1365 18.5319C42.3519 17.5846 42.8307 16.7176 43.5176 16.0307C44.2045 15.3437 45.0716 14.865 46.0188 14.6495L50.1992 13.6987C50.5788 13.6122 50.9177 13.3994 51.1604 13.0951C51.4032 12.7908 51.5354 12.4131 51.5354 12.0238C51.5354 11.6345 51.4032 11.2568 51.1604 10.9525C50.9177 10.6482 50.5788 10.4354 50.1992 10.3489L46.0188 9.39804C45.0716 9.18261 44.2045 8.70384 43.5176 8.01692C42.8307 7.33001 42.3519 6.46294 42.1365 5.51569L41.1856 1.33614ZM35.7641 12.0238C37.3763 11.2006 38.6875 9.88941 39.5107 8.27714C40.3339 9.88941 41.6451 11.2006 43.2574 12.0238C41.6451 12.847 40.3339 14.1582 39.5107 15.7704C38.6875 14.1582 37.3763 12.847 35.7641 12.0238Z" fill="url(#paint0_linear_68_155)"/>
<path d="M8.58929 10.3059H25.2671C25.0352 10.835 24.9089 11.4174 24.9089 12.0238C24.9089 12.6302 25.036 13.2125 25.2671 13.7416H8.58929C7.6323 13.7414 6.69415 14.0077 5.87996 14.5106C5.06576 15.0135 4.40767 15.7332 3.97942 16.589L22.9815 28.8047C23.8127 29.339 24.7801 29.6232 25.7683 29.6232C26.7565 29.6232 27.7238 29.339 28.5551 28.8047L35.661 24.2352C35.9388 24.7962 36.3357 25.2899 36.8241 25.6815C37.3125 26.0732 37.8806 26.3535 38.4886 26.5027L30.4129 31.6933C29.0274 32.584 27.415 33.0577 25.7679 33.0577C24.1207 33.0577 22.5083 32.584 21.1228 31.6933L3.43571 20.3236V42.9452C3.43571 44.312 3.97868 45.6229 4.94516 46.5893C5.91164 47.5558 7.22247 48.0988 8.58929 48.0988H42.9464C44.3132 48.0988 45.6241 47.5558 46.5906 46.5893C47.557 45.6229 48.1 44.312 48.1 42.9452V20.3236L43.7332 23.1315L44.6488 19.1031C44.7235 18.7741 44.861 18.4692 45.0465 18.2021L46.706 17.1361L50.7704 16.2119C50.8752 16.1879 50.9783 16.1604 51.0805 16.1286C51.376 16.9961 51.5357 17.9272 51.5357 18.8952V42.9452C51.5357 47.6891 47.6903 51.5345 42.9464 51.5345H8.58929C3.84542 51.5345 0 47.6891 0 42.9452V18.8952C0 14.1514 3.84542 10.3059 8.58929 10.3059Z" fill="url(#paint1_linear_68_155)"/>
</g>
<path d="M67.032 29L63.198 15.698H64.944L67.914 26.516L70.794 15.698H72.234L75.096 26.516L78.066 15.698H79.812L75.978 29H74.178L71.496 18.794L68.832 29H67.032ZM81.3476 29V15.698H84.8216C88.5116 15.698 90.3296 17.102 90.3296 19.964C90.3296 22.268 89.0156 23.672 86.5496 24.05L90.2396 29H88.1156L83.5436 22.664H84.6056C87.2876 22.664 88.6016 21.782 88.6016 19.982C88.6016 18.092 87.4136 17.282 84.6776 17.282H83.0576V29H81.3476ZM92.2636 29V15.698H93.9736V29H92.2636ZM98.2962 29V17.282H95.4522V15.698H102.868V17.282H100.006V29H98.2962ZM104.322 29V15.698H111.558V17.282H106.032V21.512H111.36V23.096H106.032V27.416H111.558V29H104.322ZM64.332 47V33.698H66.852L71.262 44.606L75.672 33.698H78.174V47H76.464V35.786L71.964 47H70.524L66.042 35.786V47H64.332ZM84.0959 47V42.392L79.5779 33.698H81.4499L84.9419 40.7L88.5059 33.698H90.3599L85.8059 42.392V47H84.0959ZM96.7812 47V33.698H99.3012L103.711 44.606L108.121 33.698H110.623V47H108.913V35.786L104.413 47H102.973L98.4912 35.786V47H96.7812ZM112.135 47L117.787 33.698H119.425L125.095 47H123.223L121.459 42.86H115.753L113.971 47H112.135ZM116.401 41.276H120.793L118.615 35.858L116.401 41.276ZM126.611 47V33.698H128.321V47H126.611ZM131.006 47V33.698H132.716V45.416H137.756V47H131.006Z" fill="white"/>
<defs>
<linearGradient id="paint0_linear_68_155" x1="5.15356" y1="25.7673" x2="46.3822" y2="25.7673" gradientUnits="userSpaceOnUse">
<stop stop-color="#D918CF"/>
<stop offset="1" stop-color="#00A3FF"/>
</linearGradient>
<linearGradient id="paint1_linear_68_155" x1="5.15356" y1="25.7673" x2="46.3822" y2="25.7673" gradientUnits="userSpaceOnUse">
<stop stop-color="#D918CF"/>
<stop offset="1" stop-color="#00A3FF"/>
</linearGradient>
<clipPath id="clip0_68_155">
<rect width="52" height="52" fill="white"/>
</clipPath>
</defs>
</svg>
