<svg width="35" height="39" viewBox="0 0 35 39" fill="none" xmlns="http://www.w3.org/2000/svg">
<path d="M19.1367 2H31.0454V13.9087H19.1367V2Z" stroke="white" stroke-width="2.28516" stroke-miterlimit="10" stroke-linecap="round" stroke-linejoin="round"/>
<path d="M13.9092 13.9087L2.00047 13.9087L2.00047 1.99998L13.9092 1.99998L13.9092 13.9087Z" stroke="white" stroke-width="2.28516" stroke-miterlimit="10" stroke-linecap="round" stroke-linejoin="round"/>
<path d="M13.9092 31.0457H2.00047L2.00047 19.1369H13.9092L13.9092 31.0457Z" stroke="white" stroke-width="2.28516" stroke-miterlimit="10" stroke-linecap="round" stroke-linejoin="round"/>
<path d="M22.4772 26.1805V30.4647M23.2578 7.42788L24.6375 8.80755L26.9248 6.5202M32.8429 31.8197C32.1131 34.0547 30.8917 37 30.8917 37L20.2893 36.9942C20.0615 36.4795 18.6001 33.0513 18.3738 31.3208C17.8415 28.7096 19.7992 26.2516 22.4634 26.1797L22.4772 26.1819V20.444C22.4772 19.2408 23.4525 18.2655 24.6556 18.2655C25.8588 18.2655 26.834 19.2408 26.834 20.444V26.8209L26.9023 26.8311L30.4452 27.6146C32.3309 28.0314 33.4434 29.984 32.8429 31.8197Z" stroke="white" stroke-width="2.28516" stroke-miterlimit="10" stroke-linecap="round" stroke-linejoin="round"/>
</svg>
