<svg width="35" height="35" viewBox="0 0 35 35" fill="none" xmlns="http://www.w3.org/2000/svg">
<path fill-rule="evenodd" clip-rule="evenodd" d="M19.5809 2.24111C19.4573 1.70451 19.1531 1.22534 18.7181 0.882126C18.2832 0.53891 17.7433 0.35199 17.187 0.35199C16.6306 0.35199 16.0907 0.53891 15.6558 0.882126C15.2208 1.22534 14.9166 1.70451 14.793 2.24111L13.4339 8.15042C13.126 9.48971 12.4417 10.7156 11.4599 11.6868C10.4781 12.658 9.23877 13.335 7.88486 13.6395L1.90976 14.9839C1.36729 15.1062 0.882897 15.4071 0.535931 15.8373C0.188965 16.2676 0 16.8016 0 17.352C0 17.9024 0.188965 18.4364 0.535931 18.8666C0.882897 19.2969 1.36729 19.5978 1.90976 19.7201L7.88486 21.0644C9.23877 21.369 10.4781 22.046 11.4599 23.0172C12.4417 23.9884 13.126 25.2143 13.4339 26.5536L14.793 32.4629C14.9166 32.9995 15.2208 33.4786 15.6558 33.8219C16.0907 34.1651 16.6306 34.352 17.187 34.352C17.7433 34.352 18.2832 34.1651 18.7181 33.8219C19.1531 33.4786 19.4573 32.9995 19.5809 32.4629L20.94 26.5536C21.2479 25.2143 21.9322 23.9884 22.914 23.0172C23.8958 22.046 25.1351 21.369 26.489 21.0644L32.4641 19.7201C33.0066 19.5978 33.491 19.2969 33.838 18.8666C34.1849 18.4364 34.3739 17.9024 34.3739 17.352C34.3739 16.8016 34.1849 16.2676 33.838 15.8373C33.491 15.4071 33.0066 15.1062 32.4641 14.9839L26.489 13.6395C25.1351 13.335 23.8958 12.658 22.914 11.6868C21.9322 10.7156 21.2479 9.48971 20.94 8.15042L19.5809 2.24111ZM11.8318 17.352C14.1363 16.1881 16.0104 14.3343 17.187 12.0547C18.3635 14.3343 20.2376 16.1881 22.5421 17.352C20.2376 18.5159 18.3635 20.3697 17.187 22.6492C16.0104 20.3697 14.1363 18.5159 11.8318 17.352Z" fill="#F2F2F2"/>
</svg>
