<svg width="163" height="163" viewBox="0 0 163 163" fill="none" xmlns="http://www.w3.org/2000/svg">
<path fill-rule="evenodd" clip-rule="evenodd" d="M81.5 0.249878C126.373 0.249878 162.75 36.6267 162.75 81.4999C162.75 126.373 126.373 162.75 81.5 162.75C36.6269 162.75 0.25 126.373 0.25 81.4999C0.25 36.6267 36.6269 0.249878 81.5 0.249878ZM81.5 16.4999C45.6015 16.4999 16.5 45.6014 16.5 81.4999C16.5 117.398 45.6015 146.5 81.5 146.5C117.399 146.5 146.5 117.398 146.5 81.4999C146.5 45.6014 117.399 16.4999 81.5 16.4999ZM108.255 51.3796L65.25 94.3844L54.7452 83.8796C51.5722 80.7066 46.4278 80.7066 43.2548 83.8796C40.0817 87.0526 40.0817 92.1971 43.2548 95.3701L59.5048 111.62C62.6778 114.793 67.8222 114.793 70.9952 111.62L119.745 62.8701C122.918 59.6971 122.918 54.5526 119.745 51.3796C116.572 48.2066 111.428 48.2066 108.255 51.3796Z" fill="url(#paint0_linear_174_230)"/>
<defs>
<linearGradient id="paint0_linear_174_230" x1="16.5" y1="81.4999" x2="146.5" y2="81.4999" gradientUnits="userSpaceOnUse">
<stop stop-color="#D918CF"/>
<stop offset="1" stop-color="#00A3FF"/>
</linearGradient>
</defs>
</svg>
